<?xml version="1.0" encoding="UTF-8" standalone="no"?>
<svg
   width="97.62722"
   height="142.93488"
   version="1.1"
   id="svg1"
   sodipodi:docname="github-custom.svg"
   inkscape:version="1.4.2 (f4327f4, 2025-05-13)"
   inkscape:export-filename="..\CodeStuffs\NumXX-Website\media\github-logo-light.png"
   inkscape:export-xdpi="96"
   inkscape:export-ydpi="96"
   xmlns:inkscape="http://www.inkscape.org/namespaces/inkscape"
   xmlns:sodipodi="http://sodipodi.sourceforge.net/DTD/sodipodi-0.dtd"
   xmlns="http://www.w3.org/2000/svg"
   xmlns:svg="http://www.w3.org/2000/svg">
  <defs
     id="defs1" />
  <sodipodi:namedview
     id="namedview1"
     pagecolor="#505050"
     bordercolor="#eeeeee"
     borderopacity="1"
     inkscape:showpageshadow="0"
     inkscape:pageopacity="0"
     inkscape:pagecheckerboard="0"
     inkscape:deskcolor="#505050"
     inkscape:zoom="4.0260417"
     inkscape:cx="37.38163"
     inkscape:cy="54.023285"
     inkscape:window-width="1920"
     inkscape:window-height="991"
     inkscape:window-x="1911"
     inkscape:window-y="-9"
     inkscape:window-maximized="1"
     inkscape:current-layer="svg1" />
  <path
     fill-rule="evenodd"
     clip-rule="evenodd"
     d="M 48.854,0 C 21.839,0 0,22.000001 0,49.217001 c 0,21.756 13.993,40.172 33.405,46.69 2.427,0.49 3.316001,-1.059 3.316001,-2.362 0,-1.141 -0.08,-5.052 -0.08,-9.127 -13.590001,2.934 -16.420001,-5.867 -16.420001,-5.867 -2.184,-5.704 -5.42,-7.17 -5.42,-7.17 -4.448,-3.015 0.324,-3.015 0.324,-3.015 4.934,0.326 7.523,5.052 7.523,5.052 4.367,7.496 11.404,5.378 14.235,4.074 0.404,-3.178 1.699,-5.378 3.074,-6.6 -10.839,-1.141 -22.243,-5.378 -22.243,-24.283 0,-5.378 1.94,-9.778 5.014,-13.2 -0.485,-1.222 -2.184,-6.275 0.486,-13.038 0,0 4.125,-1.304 13.426,5.052 a 46.97,46.97 0 0 1 12.214,-1.63 c 4.125,0 8.33,0.571 12.213,1.63 9.302,-6.356 13.427,-5.052 13.427,-5.052 2.67,6.763 0.97,11.816 0.485,13.038 3.155,3.422 5.015,7.822 5.015,13.2 0,18.905 -11.403999,23.06 -22.324,24.283 1.780001,1.548 3.316001,4.481 3.316001,9.126 0,6.6 -0.08,11.897 -0.08,13.526 0,1.304 0.89,2.853 3.316,2.364 19.411999,-6.52 33.405,-24.935 33.405,-46.691 C 97.707001,22.000001 75.788001,0 48.854,0 Z"
     fill="#24292f"
     id="path1"
     style="fill:#adb4e4;fill-opacity:1" />
  <text
     xml:space="preserve"
     style="font-style:normal;font-variant:normal;font-weight:normal;font-stretch:normal;font-size:26.0387px;font-family:'Segoe UI';-inkscape-font-specification:'Segoe UI';text-align:center;writing-mode:lr-tb;direction:ltr;text-anchor:middle;fill:#adb4e4;fill-opacity:1;stroke:none;stroke-width:0.290785;stroke-dasharray:none;stroke-opacity:1"
     x="48.826324"
     y="142.62973"
     id="text1"><tspan
       sodipodi:role="line"
       id="tspan1"
       x="48.826324"
       y="142.62973"
       style="font-style:normal;font-variant:normal;font-weight:normal;font-stretch:normal;font-family:'Segoe UI';-inkscape-font-specification:'Segoe UI';stroke-width:0.290785">GitHub</tspan></text>
</svg>
